<svg version="1.1" xmlns="http://www.w3.org/2000/svg" xmlns:xlink="http://www.w3.org/1999/xlink" width="31" height="31"><defs/><g><path fill="rgb(255,255,255)" stroke="none" paint-order="stroke fill markers" fill-rule="evenodd" d=" M 29.0000057220459 28.301068603992462 C 29.0000057220459 28.301068603992462 20.738515853881836 20.03214979171753 20.738515853881836 20.03214979171753 C 22.255144119262695 18.136650681495667 23.16666603088379 15.72298264503479 23.16666603088379 13.098154962062836 C 23.16666603088379 6.965811610221863 18.201074600219727 1.9999292492866516 12.083349227905273 1.9999292492866516 C 5.9583282470703125 1.9999292492866516 1.0000324249267578 6.972782492637634 1.0000324249267578 13.098154962062836 C 1.0000324249267578 19.222946524620056 5.96562385559082 24.19579976797104 12.083349227905273 24.19579976797104 C 14.722929000854492 24.19579976797104 17.143783569335938 23.269834220409393 19.04693603515625 21.73130238056183 C 19.04693603515625 21.73130238056183 27.300987243652344 29.99993073940277 27.300987243652344 29.99993073940277 C 27.300987243652344 29.99993073940277 29.0000057220459 28.301068603992462 29.0000057220459 28.301068603992462 Z M 5.6516265869140625 19.543026208877563 C 3.9332962036132812 17.824703693389893 2.990589141845703 15.538254261016846 2.990589141845703 13.104544937610626 C 2.990589141845703 10.671126067638397 3.9400196075439453 8.38438618183136 5.6516265869140625 6.666354119777679 C 7.363090515136719 4.9480316042900085 9.656343460083008 3.9918588995933533 12.083349227905273 3.9918588995933533 C 14.510354995727539 3.9918588995933533 16.796884536743164 4.9413511753082275 18.515071868896484 6.659383237361908 C 20.233402252197266 8.377705752849579 21.176109313964844 10.664445638656616 21.176109313964844 13.098154962062836 C 21.176109313964844 15.531573832035065 20.2266788482666 17.81802326440811 18.515071868896484 19.536345779895782 C 16.796884536743164 21.254668295383453 14.510354995727539 22.204160571098328 12.083349227905273 22.204160571098328 C 9.656343460083008 22.21084100008011 7.369813919067383 21.261348724365234 5.6516265869140625 19.543026208877563 Z"/></g></svg>